M48
; DRILL file {KiCad 7.0.5} date Fri Mar 29 17:13:58 2024
; FORMAT={-:-/ absolute / metric / decimal}
; #@! TF.CreationDate,2024-03-29T17:13:58+04:00
; #@! TF.GenerationSoftware,Kicad,Pcbnew,7.0.5
; #@! TF.FileFunction,Plated,1,2,PTH
FMAT,2
METRIC
; #@! TA.AperFunction,Plated,PTH,ComponentDrill
T1C0.800
; #@! TA.AperFunction,Plated,PTH,ComponentDrill
T2C1.000
; #@! TA.AperFunction,Plated,PTH,ComponentDrill
T3C1.100
; #@! TA.AperFunction,Plated,PTH,ComponentDrill
T4C1.200
; #@! TA.AperFunction,Plated,PTH,ComponentDrill
T5C1.330
; #@! TA.AperFunction,Plated,PTH,ComponentDrill
T6C1.520
; #@! TA.AperFunction,Plated,PTH,ComponentDrill
T7C1.800
%
G90
G05
T1
X82.55Y153.67
X82.55Y156.21
X82.55Y158.75
X82.55Y161.29
X82.55Y163.83
X82.55Y166.37
X82.55Y168.91
X82.55Y171.45
X90.17Y139.7
X90.17Y147.32
X90.17Y153.67
X90.17Y156.21
X90.17Y158.75
X90.17Y161.29
X90.17Y163.83
X90.17Y166.37
X90.17Y168.91
X90.17Y171.45
X92.71Y139.7
X92.71Y147.32
X95.25Y139.7
X95.25Y147.32
X97.79Y139.7
X97.79Y147.32
T2
X69.85Y114.3
X69.85Y116.84
X69.85Y119.38
X94.1Y171.45
X101.6Y171.45
T3
X102.87Y146.05
X105.41Y146.05
X107.95Y146.05
T4
X62.865Y171.45
X63.5Y133.35
X63.5Y152.4
X70.365Y171.45
X71.0Y133.35
X71.0Y152.4
X76.2Y127.0
X76.2Y142.24
X80.01Y177.8
X82.55Y127.0
X82.55Y142.24
X88.9Y127.0
X88.9Y133.35
X94.615Y152.4
X94.615Y167.64
X95.25Y177.8
X99.06Y177.8
X100.965Y152.4
X100.965Y167.64
X104.14Y127.0
X104.14Y133.35
X107.95Y152.4
X107.95Y167.64
X114.3Y146.05
X114.3Y152.4
X114.3Y167.64
X114.3Y177.8
X120.65Y139.7
X129.54Y146.05
X135.89Y139.7
T5
X109.22Y139.7
X111.76Y139.7
X114.3Y139.7
T6
X83.82Y184.15
X88.9Y184.15
X90.17Y101.6
X95.25Y101.6
T7
X120.65Y120.65
X120.65Y132.09
T0
M30
